<svg xmlns="http://www.w3.org/2000/svg" xmlns:xlink="http://www.w3.org/1999/xlink" width="16" height="15" viewBox="0 0 16 15"><defs><path id="us25a" d="M785 783.8a2.34 2.34 0 1 1-1 4.45 2.9 2.9 0 0 0-1.34-2.15 2.34 2.34 0 0 1 2.34-2.3zm-6.23 4.75a2.34 2.34 0 0 1 4.7 0 2.34 2.34 0 1 1-4.7 0zm6.35 5.48v2.43h-.02l-.16.07c-.07.04-1.35.67-3.56.67-1.13 0-2.5-.16-4.09-.65l-.17-.06v-2.46a3 3 0 0 1 3-2.99h2a3 3 0 0 1 3 3zm3.88-2.41v2.42h-.02l-.15.08c-.08.04-1.2.6-3.15.66v-.75c0-1.6-1.08-2.96-2.55-3.4.53-.5.87-1.21.89-2H786a3 3 0 0 1 3 2.99zm-14.35-5.49a2.34 2.34 0 0 1 4.7 0l-.01.14c-.57.44-.98 1.1-1.1 1.84a2.34 2.34 0 0 1-3.59-1.98zm1.9 7.9v.74c-.98-.06-2.1-.24-3.38-.64l-.16-.05-.01-.04v-2.42a3 3 0 0 1 3-3h2l.22.02c.02.78.36 1.49.89 2a3.56 3.56 0 0 0-2.55 3.4z"/></defs><g><g transform="translate(-773 -783)"><use fill="#c7bfb7" xlink:href="#us25a"/></g></g></svg>