<svg xmlns="http://www.w3.org/2000/svg" xmlns:xlink="http://www.w3.org/1999/xlink" width="26" height="40" viewBox="0 0 26 40"><defs><path id="u7uua" d="M717.9 6815.28l-16.97 25.16-3.95-5.5c15.33-21.72 15.17-21.31 17.88-25.79 1.95-3.22 1.6-4.63 1.6-4.63s1.08 2.95 2.03 6.18c.96 3.22-.59 4.58-.59 4.58zm4.7 19.93l-3.86 5.68-6.88-13.43 3.8-5.56zm-16.67-31.05l-.17.5c.02-.18.08-.36.17-.5zm-1.9 10.53c-1-1.86-.33-3.56-.33-3.56l2.06-6.46c-.15 1.24.98 3.16.98 3.16l2.79 6.2-3.37 5.72s-1.14-3.2-2.14-5.06zm3.22-7.17c-2.14-3.64-.46-4.63-.46-4.63 5.29-2.64 9.14.43 9.14.43.86 1.72-.88 4.2-.88 4.2-2.64-1.37-7.8 0-7.8 0z"/></defs><g><g transform="translate(-697 -6801)"><use fill="#65594d" xlink:href="#u7uua"/></g></g></svg>